<svg id="Layer_1" data-name="Layer 1" xmlns="http://www.w3.org/2000/svg" xmlns:xlink="http://www.w3.org/1999/xlink" viewBox="0 0 1000 700"><defs><clipPath id="clip-path"><rect y="500.12" width="1000" height="173.06" fill="none"/></clipPath></defs><title>awesome-nuxt-logo</title><g clip-path="url(#clip-path)"><path d="M258.2,530.94a13.66,13.66,0,0,1,10.1,4.2,13.82,13.82,0,0,1,4.2,10.1v49.6H221.8a13.66,13.66,0,0,1-10.1-4.2,13.82,13.82,0,0,1-4.2-10.1v-23.6h53.1v-11.7a2.39,2.39,0,0,0-2.4-2.4H207.5v-11.9Zm2.4,52v-14.1H219.4v11.7a2.39,2.39,0,0,0,2.4,2.4Zm114.7-52H388l-24,63.9h-9.7l-21.5-47.5-20.3,47.5-.2-.1.1.1h-9.6l-25.1-63.9h12.6l17.3,42.4,18.4-42.4h13.6l19.5,42.4,16.2-42.4Zm67.2,0a13.66,13.66,0,0,1,10.1,4.2,13.82,13.82,0,0,1,4.2,10.1v23.6H403.7v11.7a2.39,2.39,0,0,0,2.4,2.4h50.7v11.9H406.1a13.66,13.66,0,0,1-10.1-4.2,13.82,13.82,0,0,1-4.2-10.1v-35.3a13.66,13.66,0,0,1,4.2-10.1,13.82,13.82,0,0,1,10.1-4.2Zm-38.8,26h41.2v-11.7a2.39,2.39,0,0,0-2.4-2.4H406.1a2.39,2.39,0,0,0-2.4,2.4Zm129-11.6v2.4H520.8v-2.4a2.39,2.39,0,0,0-2.4-2.4H482a2.39,2.39,0,0,0-2.4,2.4v9.3A2.39,2.39,0,0,0,482,557h36.4a13.66,13.66,0,0,1,10.1,4.2,13.82,13.82,0,0,1,4.2,10.1v9.3a13.66,13.66,0,0,1-4.2,10.1,13.82,13.82,0,0,1-10.1,4.2H482a13.66,13.66,0,0,1-10.1-4.2,13.82,13.82,0,0,1-4.2-10.1v-2.4h11.9v2.4A2.39,2.39,0,0,0,482,583h36.4a2.39,2.39,0,0,0,2.4-2.4v-9.3a2.39,2.39,0,0,0-2.4-2.4H482a13.66,13.66,0,0,1-10.1-4.2,13.82,13.82,0,0,1-4.2-10.1v-9.3a13.66,13.66,0,0,1,4.2-10.1A13.82,13.82,0,0,1,482,531h36.4a13.66,13.66,0,0,1,10.1,4.2,13.51,13.51,0,0,1,4.2,10.1Zm25.2-14.4h36.4a13.66,13.66,0,0,1,10.1,4.2,13.82,13.82,0,0,1,4.2,10.1v35.3a13.66,13.66,0,0,1-4.2,10.1,13.82,13.82,0,0,1-10.1,4.2H557.9a13.66,13.66,0,0,1-10.1-4.2,13.82,13.82,0,0,1-4.2-10.1v-35.3a13.66,13.66,0,0,1,4.2-10.1,13.82,13.82,0,0,1,10.1-4.2Zm36.4,11.9H557.9a2.39,2.39,0,0,0-2.4,2.4v35.3a2.39,2.39,0,0,0,2.4,2.4h36.4a2.39,2.39,0,0,0,2.4-2.4v-35.3a2.19,2.19,0,0,0-.7-1.7,2.61,2.61,0,0,0-1.7-.7Zm107.5-11.9a13.66,13.66,0,0,1,10.1,4.2,13.82,13.82,0,0,1,4.2,10.1v49.6H704.3v-49.6a2.19,2.19,0,0,0-.7-1.7,2.41,2.41,0,0,0-1.8-.7H676.6a2.39,2.39,0,0,0-2.4,2.4v49.6H662.3v-49.6a2.39,2.39,0,0,0-2.4-2.4H634.6a2.39,2.39,0,0,0-2.4,2.4v49.6H620.3v-63.9Zm76.5,0a13.66,13.66,0,0,1,10.1,4.2,13.82,13.82,0,0,1,4.2,10.1v23.6H739.5v11.7a2.39,2.39,0,0,0,2.4,2.4h50.7v11.9H741.9a13.66,13.66,0,0,1-10.1-4.2,13.82,13.82,0,0,1-4.2-10.1v-35.3a13.66,13.66,0,0,1,4.2-10.1,13.82,13.82,0,0,1,10.1-4.2Zm-38.8,26h41.2v-11.7a2.39,2.39,0,0,0-2.4-2.4H741.9a2.39,2.39,0,0,0-2.4,2.4v11.7Z" fill="#494368"/><path d="M792.5,298.84l-150-137.6-21.1,23,125,114.6H253.7l125-114.7-21.1-23-150,137.7h-.1v90.7c0,41,39.5,74.4,88,74.4H388c48.5,0,88-33.4,88-74.4v-59.6h48v59.6c0,41,39.5,74.4,88,74.4h92.5c48.5,0,88-33.4,88-74.4v-90.7Z" fill="#fc60a8"/></g><path d="M394,463.69a29.51,29.51,0,0,1-3-18.75H260L454.42,98.72l82.46,147.66L562.78,227,481.21,79.67C480,77,470.5,61.81,454.42,61.81c-7.44,0-17.86,3-26.49,18.46L230.56,430.65c-1.79,3-9.82,19.05-1.79,33,3.58,6.55,11.61,14,28.88,14H423.16C405.9,477.68,397.86,470.24,394,463.69Z" fill="#00c58e" fill-rule="evenodd"/><path d="M769.08,431.24l-159-284.59c-1.48-3-10.71-17.86-26.79-17.86-7.14,0-17.26,3-25.6,17.86l-20.84,33.94v65.49l46.74-81L740.8,445.53H681.26a27.71,27.71,0,0,1-3,16.67v.9c-8.33,14-25.6,14.88-29.17,14.88h93.48c3.57,0,20.83-.89,28.87-14.88,3.57-6.26,5.95-17-2.38-31.86Z" fill="#108775" fill-rule="evenodd"/><polygon points="683.19 307.98 585.56 271.39 579.83 286 661.18 316.49 683.18 307.99 683.19 307.98" fill="#fc60a8"/><polygon points="389.34 307.98 486.96 271.39 492.7 286 411.35 316.49 389.35 307.99 389.34 307.98" fill="#fc60a8"/><path d="M682.15,463.1l.6-1.2,1.19-3a23.66,23.66,0,0,0,1.19-13.7A39.3,39.3,0,0,0,679.77,431L555.64,213.63l-18.46-32.74h-.3l-19,32.74L393.69,431a44.86,44.86,0,0,0-4.76,14.28,28.9,28.9,0,0,0,3,18.46c3.87,6.55,11.91,14,29.17,14H652.39c3.57,0,21.43-.59,29.76-14.88ZM536.88,246.38,650,444.94H423.76Z" fill="#2f495e"/><path d="M683.13,308H389.34v45.56c0,20.6,19.82,37.36,44.2,37.36H480c24.36,0,44.19-16.76,44.19-37.36V323.62h24.13v29.91c0,20.6,19.82,37.36,44.19,37.36H639c24.37,0,44.2-16.76,44.2-37.36V308Z" fill="#fc60a8"/></svg>