<svg id="Ebene_1" data-name="Ebene 1" xmlns="http://www.w3.org/2000/svg" width="20" height="20" viewBox="0 0 20 20"><title>nuxt-v1-label</title><rect width="20" height="20" rx="2" fill="#c5def5"/><path d="M0,17H20a0,0,0,0,1,0,0v1a2,2,0,0,1-2,2H2a2,2,0,0,1-2-2V17a0,0,0,0,1,0,0Z" fill="#1b1f23" opacity="0.12"/><rect width="20" height="19" rx="2" fill="#c5def5"/><path d="M5.82,14.18,3.36,7.7H4.82l1.32,3.77A8.14,8.14,0,0,1,6.55,13h0A10.7,10.7,0,0,1,7,11.47L8.32,7.7H9.79L7.31,14.18Z"/><path d="M14.36,14.18H13V8.65c0-.66,0-1.18,0-1.57a3.39,3.39,0,0,1-.33.31c-.14.12-.57.48-1.32,1.08l-.69-.87,2.52-2h1.15Z"/></svg>