<svg id="Ebene_1" data-name="Ebene 1" xmlns="http://www.w3.org/2000/svg" width="20" height="20" viewBox="0 0 20 20"><title>nuxt-v3-label</title><rect width="20" height="20" rx="2" fill="#8bea4f"/><path d="M0,17H20a0,0,0,0,1,0,0v1a2,2,0,0,1-2,2H2a2,2,0,0,1-2-2V17a0,0,0,0,1,0,0Z" fill="#1b1f23" opacity="0.12"/><rect width="20" height="19" rx="2" fill="#8bea4f"/><path d="M9.68,8,7.36,14H5.89L3.68,8H5.15l1.33,4.19a3.31,3.31,0,0,1,.19.81h0a4.12,4.12,0,0,1,.16-.78L8.25,8Z"/><path d="M10.43,13.64V12.36a3,3,0,0,0,1.86.65,2.16,2.16,0,0,0,1.33-.38,1.22,1.22,0,0,0,.51-1c0-1-.73-1.43-2.19-1.43h-.65V9.08h.62c1.29,0,1.94-.45,1.94-1.35s-.5-1.24-1.51-1.24a2.51,2.51,0,0,0-1.59.6V5.88a4.05,4.05,0,0,1,2-.48A2.65,2.65,0,0,1,14.56,6a1.78,1.78,0,0,1,.68,1.44,2.05,2.05,0,0,1-1.69,2.13v0A2.22,2.22,0,0,1,15,10.2a1.9,1.9,0,0,1,.52,1.37,2.22,2.22,0,0,1-.85,1.82,3.36,3.36,0,0,1-2.23.7A3.85,3.85,0,0,1,10.43,13.64Z"/></svg>