<svg id="Ebene_1" data-name="Ebene 1" xmlns="http://www.w3.org/2000/svg" width="20" height="20" viewBox="0 0 20 20"><title>nuxt-v1-label</title><rect width="20" height="20" rx="2" fill="#c5def5"/><path d="M0,17H20a0,0,0,0,1,0,0v1a2,2,0,0,1-2,2H2a2,2,0,0,1-2-2V17a0,0,0,0,1,0,0Z" fill="#1b1f23" opacity="0.12"/><rect width="20" height="19" rx="2" fill="#c5def5"/><path d="M10.59,8,8.27,14H6.8L4.59,8H6.07L7.4,12.14a3.85,3.85,0,0,1,.19.81h0a4.12,4.12,0,0,1,.16-.78L9.17,8Z"/><path d="M14.23,5.36V14H12.87V7a3.84,3.84,0,0,1-.79.45,6.49,6.49,0,0,1-1,.32V6.63c.23-.07.45-.15.66-.23s.42-.17.62-.27L13,5.79c.21-.13.43-.27.65-.43Z"/></svg>