<svg id="Ebene_1" data-name="Ebene 1" xmlns="http://www.w3.org/2000/svg" width="20" height="20" viewBox="0 0 20 20"><title>nuxt-v2-label</title><rect width="20" height="20" rx="2" fill="#fbca04"/><path d="M0,17H20a0,0,0,0,1,0,0v1a2,2,0,0,1-2,2H2a2,2,0,0,1-2-2V17a0,0,0,0,1,0,0Z" fill="#1b1f23" opacity="0.12"/><rect width="20" height="19" rx="2" fill="#fbca04"/><path d="M5.82,14.18,3.36,7.7H4.82l1.32,3.77A8.14,8.14,0,0,1,6.55,13h0A10.7,10.7,0,0,1,7,11.47L8.32,7.7H9.79L7.31,14.18Z"/><path d="M16.12,14.18H10.31v-1l2.21-2.22a19.16,19.16,0,0,0,1.3-1.42,3.56,3.56,0,0,0,.47-.79,2.26,2.26,0,0,0,.14-.79A1.16,1.16,0,0,0,14.08,7a1.3,1.3,0,0,0-1-.34,2.55,2.55,0,0,0-.95.18,4.79,4.79,0,0,0-1.07.66l-.74-.91a4.91,4.91,0,0,1,1.39-.85,4,4,0,0,1,1.43-.25,2.81,2.81,0,0,1,1.92.62,2.11,2.11,0,0,1,.72,1.68,3,3,0,0,1-.21,1.1A4.2,4.2,0,0,1,15,10a13.56,13.56,0,0,1-1.43,1.5l-1.49,1.44V13h4.07Z"/></svg>