<svg id="Ebene_1" data-name="Ebene 1" xmlns="http://www.w3.org/2000/svg" width="20" height="20" viewBox="0 0 20 20"><title>nuxt-v3-label</title><rect width="20" height="20" rx="2" fill="#8bea4f"/><path d="M0,17H20a0,0,0,0,1,0,0v1a2,2,0,0,1-2,2H2a2,2,0,0,1-2-2V17a0,0,0,0,1,0,0Z" fill="#1b1f23" opacity="0.12"/><rect width="20" height="19" rx="2" fill="#8bea4f"/><path d="M5.82,14.18,3.36,7.7H4.82l1.32,3.77A8.14,8.14,0,0,1,6.55,13h0A10.7,10.7,0,0,1,7,11.47L8.32,7.7H9.79L7.31,14.18Z"/><path d="M15.8,7.59a2,2,0,0,1-.48,1.35A2.34,2.34,0,0,1,14,9.67v.05a2.61,2.61,0,0,1,1.54.64,1.82,1.82,0,0,1,.52,1.36,2.27,2.27,0,0,1-.87,1.91,4,4,0,0,1-2.49.67,5.55,5.55,0,0,1-2.4-.46V12.61a5.64,5.64,0,0,0,1.15.42,5,5,0,0,0,1.18.15,2.48,2.48,0,0,0,1.48-.37,1.34,1.34,0,0,0,.5-1.14,1.07,1.07,0,0,0-.55-1,3.39,3.39,0,0,0-1.71-.33H11.6V9.22h.75c1.37,0,2.05-.48,2.05-1.42A1.06,1.06,0,0,0,14.05,7,1.61,1.61,0,0,0,13,6.65a3.29,3.29,0,0,0-.94.14A4.52,4.52,0,0,0,11,7.32l-.68-1a4.49,4.49,0,0,1,2.74-.86,3.26,3.26,0,0,1,2,.55A1.81,1.81,0,0,1,15.8,7.59Z"/></svg>