<svg id="Ebene_1" data-name="Ebene 1" xmlns="http://www.w3.org/2000/svg" width="20" height="20" viewBox="0 0 20 20"><title>nuxt-v2-label</title><rect width="20" height="20" rx="2" fill="#fbca04"/><path d="M0,17H20a0,0,0,0,1,0,0v1a2,2,0,0,1-2,2H2a2,2,0,0,1-2-2V17a0,0,0,0,1,0,0Z" fill="#1b1f23" opacity="0.12"/><rect width="20" height="19" rx="2" fill="#fbca04"/><path d="M9.68,8,7.36,14H5.89L3.68,8H5.15l1.33,4.19a3.31,3.31,0,0,1,.19.81h0a4.12,4.12,0,0,1,.16-.78L8.25,8Z"/><path d="M15.56,14H10.29V13.3a2.27,2.27,0,0,1,.11-.75,2.8,2.8,0,0,1,.3-.66,3.86,3.86,0,0,1,.44-.58,5.36,5.36,0,0,1,.54-.52c.19-.17.38-.34.58-.5l.59-.47.49-.45a2.65,2.65,0,0,0,.38-.46A1.89,1.89,0,0,0,14,8.42a1.71,1.71,0,0,0,.08-.57,1.5,1.5,0,0,0-.1-.58,1.24,1.24,0,0,0-.28-.42,1.36,1.36,0,0,0-.44-.25,1.92,1.92,0,0,0-.55-.08,2.51,2.51,0,0,0-1,.24,3.57,3.57,0,0,0-1,.72V6.17a5.24,5.24,0,0,1,.53-.34,4.41,4.41,0,0,1,.54-.24,3.63,3.63,0,0,1,.59-.14,4.65,4.65,0,0,1,.66,0,3.39,3.39,0,0,1,1,.15,2.34,2.34,0,0,1,.79.44,2.11,2.11,0,0,1,.5.73,2.57,2.57,0,0,1,.18,1,3.26,3.26,0,0,1-.12.92,3.53,3.53,0,0,1-.36.76,4.33,4.33,0,0,1-.56.67c-.22.21-.46.42-.73.65l-.68.53c-.23.18-.43.35-.61.51a2.73,2.73,0,0,0-.43.5.91.91,0,0,0-.17.5v0h3.79Z"/></svg>